ply
format ascii 1.0
comment Created by Blender 2.81 (sub 16) - www.blender.org, source file: ''
element vertex 140
property float x
property float y
property float z
property float s
property float t
element face 96
property list uchar uint vertex_indices
end_header
0.500000 0.500000 -0.500000 0.000000 1.000000
0.450000 0.500000 0.450000 0.950000 0.950000
0.500000 0.500000 0.500000 1.000000 1.000000
0.045000 0.500000 -0.450000 0.049991 0.049991
0.450000 0.500000 0.000000 0.999813 0.000000
0.450000 0.500000 -0.045000 0.949822 0.049992
0.450000 0.500000 0.000000 0.000000 0.999809
0.045000 0.500000 0.450000 0.049992 0.049991
0.450000 0.500000 0.045000 0.049992 0.949818
0.000000 0.500000 0.450000 0.999809 1.000000
-0.450000 0.500000 0.045000 0.049992 0.950008
-0.045000 0.500000 0.450000 0.949817 0.950009
0.000000 0.500000 -0.450000 1.000000 0.999820
-0.450000 0.500000 -0.046311 0.948553 0.051447
-0.450000 0.500000 0.000000 1.000000 0.000000
0.450000 0.500000 -0.450000 0.050000 0.950000
-0.450000 0.500000 -0.450000 0.050000 0.050000
-0.500000 0.500000 -0.500000 0.000000 0.000000
-0.500000 0.500000 0.500000 1.000000 0.000000
-0.450000 0.500000 0.450000 0.950000 0.050000
0.000000 0.500000 -0.450000 0.000000 0.000000
0.000000 0.500000 0.450000 0.000000 0.000000
-0.450000 0.500000 0.000000 0.000000 1.000000
-0.045000 0.500000 -0.450000 0.950009 0.949830
0.500000 -0.500000 -0.500000 0.000000 1.000000
0.500000 -0.450000 0.450000 0.950000 0.950000
0.500000 -0.500000 0.500000 1.000000 1.000000
0.500000 -0.045000 -0.450000 0.049991 0.049991
0.500000 -0.450000 0.000000 0.999813 0.000000
0.500000 -0.450000 -0.045000 0.949822 0.049992
0.500000 -0.450000 0.000000 0.000000 0.999809
0.500000 -0.045000 0.450000 0.049992 0.049991
0.500000 -0.450000 0.045000 0.049992 0.949818
0.500000 0.000000 0.450000 0.999809 1.000000
0.500000 0.450000 0.045000 0.049992 0.950008
0.500000 0.045000 0.450000 0.949817 0.950009
0.500000 0.000000 -0.450000 1.000000 0.999820
0.500000 0.450000 -0.046311 0.948553 0.051447
0.500000 0.450000 0.000000 1.000000 0.000000
0.500000 -0.450000 -0.450000 0.050000 0.950000
0.500000 0.450000 -0.450000 0.050000 0.050000
0.500000 0.500000 -0.500000 0.000000 0.000000
0.500000 0.500000 0.500000 1.000000 0.000000
0.500000 0.450000 0.450000 0.950000 0.050000
0.500000 0.000000 -0.450000 0.000000 0.000000
0.500000 0.000000 0.450000 0.000000 0.000000
0.500000 0.450000 0.000000 0.000000 1.000000
0.500000 0.045000 -0.450000 0.950009 0.949830
-0.500000 -0.500000 -0.500000 0.000000 1.000000
0.450000 -0.450000 -0.500000 0.950000 0.950000
0.500000 -0.500000 -0.500000 1.000000 1.000000
-0.450000 -0.045000 -0.500000 0.049991 0.049991
0.000000 -0.450000 -0.500000 0.999813 0.000000
-0.045000 -0.450000 -0.500000 0.949822 0.049992
0.000000 -0.450000 -0.500000 0.000000 0.999809
0.450000 -0.045000 -0.500000 0.049992 0.049991
0.045000 -0.450000 -0.500000 0.049992 0.949818
0.450000 0.000000 -0.500000 0.999809 1.000000
0.045000 0.450000 -0.500000 0.049992 0.950008
0.450000 0.045000 -0.500000 0.949817 0.950009
-0.450000 0.000000 -0.500000 1.000000 0.999820
-0.046311 0.450000 -0.500000 0.948553 0.051447
0.000000 0.450000 -0.500000 1.000000 0.000000
-0.450000 -0.450000 -0.500000 0.050000 0.950000
-0.450000 0.450000 -0.500000 0.050000 0.050000
0.500000 0.500000 -0.500000 1.000000 0.000000
0.450000 0.450000 -0.500000 0.950000 0.050000
-0.450000 0.000000 -0.500000 0.000000 0.000000
0.450000 0.000000 -0.500000 0.000000 0.000000
0.000000 0.450000 -0.500000 0.000000 1.000000
-0.450000 0.045000 -0.500000 0.950009 0.949830
-0.500000 -0.500000 0.500000 0.000000 1.000000
-0.500000 -0.450000 -0.450000 0.950000 0.950000
-0.500000 -0.500000 -0.500000 1.000000 1.000000
-0.500000 -0.045000 0.450000 0.049991 0.049991
-0.500000 -0.450000 -0.000000 0.999813 0.000000
-0.500000 -0.450000 0.045000 0.949822 0.049992
-0.500000 -0.450000 -0.000000 0.000000 0.999809
-0.500000 -0.045000 -0.450000 0.049992 0.049991
-0.500000 -0.450000 -0.045000 0.049992 0.949818
-0.500000 0.000000 -0.450000 0.999809 1.000000
-0.500000 0.450000 -0.045000 0.049992 0.950008
-0.500000 0.045000 -0.450000 0.949817 0.950009
-0.500000 0.000000 0.450000 1.000000 0.999820
-0.500000 0.450000 0.046311 0.948553 0.051447
-0.500000 0.450000 -0.000000 1.000000 0.000000
-0.500000 -0.450000 0.450000 0.050000 0.950000
-0.500000 0.450000 0.450000 0.050000 0.050000
-0.500000 0.500000 0.500000 0.000000 0.000000
-0.500000 0.500000 -0.500000 1.000000 0.000000
-0.500000 0.450000 -0.450000 0.950000 0.050000
-0.500000 0.000000 0.450000 0.000000 0.000000
-0.500000 0.000000 -0.450000 0.000000 0.000000
-0.500000 0.450000 -0.000000 0.000000 1.000000
-0.500000 0.045000 0.450000 0.950009 0.949830
0.500000 -0.500000 0.500000 0.000000 1.000000
-0.450000 -0.450000 0.500000 0.950000 0.950000
-0.500000 -0.500000 0.500000 1.000000 1.000000
0.450000 -0.045000 0.500000 0.049991 0.049991
0.000000 -0.450000 0.500000 0.999813 0.000000
0.045000 -0.450000 0.500000 0.949822 0.049992
0.000000 -0.450000 0.500000 0.000000 0.999809
-0.450000 -0.045000 0.500000 0.049992 0.049991
-0.045000 -0.450000 0.500000 0.049992 0.949818
-0.450000 0.000000 0.500000 0.999809 1.000000
-0.045000 0.450000 0.500000 0.049992 0.950008
-0.450000 0.045000 0.500000 0.949817 0.950009
0.450000 0.000000 0.500000 1.000000 0.999820
0.046311 0.450000 0.500000 0.948553 0.051447
0.000000 0.450000 0.500000 1.000000 0.000000
0.450000 -0.450000 0.500000 0.050000 0.950000
0.450000 0.450000 0.500000 0.050000 0.050000
0.500000 0.500000 0.500000 0.000000 0.000000
-0.450000 0.450000 0.500000 0.950000 0.050000
0.450000 0.000000 0.500000 0.000000 0.000000
-0.450000 0.000000 0.500000 0.000000 0.000000
0.000000 0.450000 0.500000 0.000000 1.000000
0.450000 0.045000 0.500000 0.950009 0.949830
-0.450000 -0.500000 0.450000 0.950000 0.950000
-0.045000 -0.500000 -0.450000 0.049991 0.049991
-0.450000 -0.500000 0.000000 0.999813 0.000000
-0.450000 -0.500000 -0.045000 0.949822 0.049992
-0.450000 -0.500000 0.000000 0.000000 0.999809
-0.045000 -0.500000 0.450000 0.049992 0.049991
-0.450000 -0.500000 0.045000 0.049992 0.949818
0.000000 -0.500000 0.450000 0.999809 1.000000
0.450000 -0.500000 0.045000 0.049992 0.950008
0.045000 -0.500000 0.450000 0.949817 0.950009
0.000000 -0.500000 -0.450000 1.000000 0.999820
0.450000 -0.500000 -0.046311 0.948553 0.051447
0.450000 -0.500000 0.000000 1.000000 0.000000
-0.450000 -0.500000 -0.450000 0.050000 0.950000
0.450000 -0.500000 -0.450000 0.050000 0.050000
0.500000 -0.500000 -0.500000 0.000000 0.000000
0.500000 -0.500000 0.500000 1.000000 0.000000
0.450000 -0.500000 0.450000 0.950000 0.050000
0.000000 -0.500000 -0.450000 0.000000 0.000000
0.000000 -0.500000 0.450000 0.000000 0.000000
0.450000 -0.500000 0.000000 0.000000 1.000000
0.045000 -0.500000 -0.450000 0.950009 0.949830
3 0 1 2
3 3 4 5
3 6 7 8
3 9 10 11
3 12 13 14
3 1 0 15
3 16 17 18
3 19 16 18
3 15 0 17
3 16 15 17
3 3 20 4
3 6 21 7
3 9 22 10
3 12 23 13
3 1 19 2
3 19 18 2
3 24 25 26
3 27 28 29
3 30 31 32
3 33 34 35
3 36 37 38
3 25 24 39
3 40 41 42
3 43 40 42
3 39 24 41
3 40 39 41
3 27 44 28
3 30 45 31
3 33 46 34
3 36 47 37
3 25 43 26
3 43 42 26
3 48 49 50
3 51 52 53
3 54 55 56
3 57 58 59
3 60 61 62
3 49 48 63
3 64 17 65
3 66 64 65
3 63 48 17
3 64 63 17
3 51 67 52
3 54 68 55
3 57 69 58
3 60 70 61
3 49 66 50
3 66 65 50
3 71 72 73
3 74 75 76
3 77 78 79
3 80 81 82
3 83 84 85
3 72 71 86
3 87 88 89
3 90 87 89
3 86 71 88
3 87 86 88
3 74 91 75
3 77 92 78
3 80 93 81
3 83 94 84
3 72 90 73
3 90 89 73
3 95 96 97
3 98 99 100
3 101 102 103
3 104 105 106
3 107 108 109
3 96 95 110
3 111 112 18
3 113 111 18
3 110 95 112
3 111 110 112
3 98 114 99
3 101 115 102
3 104 116 105
3 107 117 108
3 96 113 97
3 113 18 97
3 48 118 97
3 119 120 121
3 122 123 124
3 125 126 127
3 128 129 130
3 118 48 131
3 132 133 134
3 135 132 134
3 131 48 133
3 132 131 133
3 119 136 120
3 122 137 123
3 125 138 126
3 128 139 129
3 118 135 97
3 135 134 97
