ply
format ascii 1.0
comment Created by Blender 2.78 (sub 0) - www.blender.org, source file: 'torchmid.blend'
element vertex 16
property float x
property float y
property float z
property float s
property float t
property uchar red
property uchar green
property uchar blue
element face 20
property list uchar uint vertex_indices
end_header
0.025000 -0.126460 -0.025000 0.258700 0.758900 0 255 0
0.025000 -0.126460 0.025000 0.258700 0.758900 0 255 0
-0.025000 -0.126460 0.025000 0.258700 0.758900 0 255 0
-0.025000 -0.026460 -0.025000 0.258700 0.758900 0 255 0
-0.025000 -0.026460 0.025000 0.258700 0.758900 0 255 0
0.025000 -0.026460 0.025000 0.258700 0.758900 0 255 0
0.025000 -0.026460 -0.025000 0.258700 0.758900 0 255 0
-0.025000 -0.126460 -0.025000 0.258700 0.758900 0 255 0
0.080000 -0.121660 -0.080000 0.748900 0.745200 255 0 0
0.080000 -0.121660 0.080000 0.748900 0.745200 255 0 0
0.080000 -0.500000 0.080000 0.748900 0.745200 255 0 0
    -0.080000 -0.121660 0.080000 0.748900 0.745200 255 0 0
    -0.080000 -0.500000 0.080000 0.748900 0.745200 255 0 0
-0.080000 -0.121660 -0.080000 0.748900 0.745200 255 0 0
-0.080000 -0.500000 -0.080000 0.748900 0.745200 255 0 0
0.080000 -0.500000 -0.080000 0.748900 0.745200 255 0 0
3 3 4 5
3 0 6 5
3 1 5 4
3 2 4 3
3 6 0 7
3 6 3 5
3 1 0 5
3 2 1 4
3 7 2 3
3 3 6 7
3 8 9 10
3 9 11 12
3 11 13 14
3 15 14 13
3 15 8 10
3 10 9 12
3 12 11 14
3 8 15 13
3 11 9 8
3 13 11 8